
<svg xmlns="http://www.w3.org/2000/svg" viewBox="0 0 24 24">
  <path d="M11 15v2h5v-2zm0 -4v2h7v-2zm-3.992 9.001L7 9C7 8.45 7.208 7.966 7.608 7.583S8.45 7 9 7h11c0.55 0 1.021 0.204 1.413 0.595C21.804 7.987 22 8.45 22 9v8l-5 5H9C8.45 22 7.987 21.804 7.595 21.413A1.94 1.94 0 0 1 7 20M2.036 6.259Q1.886 5.434 2.361 4.772A1.97 1.97 0 0 1 3.66 3.96L14.504 2.036q0.825 -0.15 1.487 0.325t0.812 1.299L17.053 5H15L14.829 4.01L4.01 5.934L5 11.581v6.971a2.2 2.2 0 0 1 -0.678 -0.6A1.85 1.85 0 0 1 3.96 17.103zM9 9v11h7l4 -4l0.001 -6.993z"/>
</svg>
